<?xml version="1.0" standalone="no"?><!DOCTYPE svg PUBLIC "-//W3C//DTD SVG 1.1//EN" "http://www.w3.org/Graphics/SVG/1.1/DTD/svg11.dtd"><svg class="icon" width="200px" height="200.00px" viewBox="0 0 1024 1024" version="1.1" xmlns="http://www.w3.org/2000/svg"><path fill="#8a8a8a" d="M554.6 64h-85.4v128h85.4V64z m258.2 87.4L736 228.2l59.8 59.8 76.8-76.8-59.8-59.8z m-601.6 0l-59.8 59.8 76.8 76.8 59.8-59.8-76.8-76.8zM512 256c-140.8 0-256 115.2-256 256s115.2 256 256 256 256-115.2 256-256-115.2-256-256-256z m448 213.4h-128v85.4h128v-85.4z m-768 0H64v85.4h128v-85.4zM795.8 736L736 795.8l76.8 76.8 59.8-59.8-76.8-76.8z m-567.6 0l-76.8 76.8 59.8 59.8 76.8-76.8-59.8-59.8z m326.4 96h-85.4v128h85.4v-128z" /></svg>